<svg width="1010" height="58" viewBox="0 0 1010 58" fill="none" xmlns="http://www.w3.org/2000/svg">
<g clip-path="url(#clip0_38_1033)">
<path d="M0 0H174V58H0V0Z" fill="white"/>
<mask id="mask0_38_1033" style="mask-type:luminance" maskUnits="userSpaceOnUse" x="9" y="5" width="47" height="48">
<path d="M9.42499 5.79999H55.825V52.2H9.42499V5.79999Z" fill="white"/>
</mask>
<g mask="url(#mask0_38_1033)">
<path d="M55.4618 24.1331H37.9276L32.5293 7.46097L27.0998 24.1331L9.56564 24.1012L23.7466 34.4179L18.3164 51.0893L32.4974 40.7725L46.6784 51.0893L41.2808 34.4172L55.4618 24.1331Z" fill="#00B67A"/>
<path d="M42.4944 38.1858L41.2808 34.4172L32.53 40.7733L42.4944 38.1858Z" fill="#005128"/>
</g>
<path d="M84.825 17.8183H78.1775L76.1308 11.4978L74.0725 17.8183L67.425 17.8067L72.8009 21.7174L70.7426 28.0379L76.1192 24.1273L81.4951 28.0379L79.4491 21.7174L84.825 17.8183ZM104.347 17.8183H97.6995L95.6536 11.4978L93.5946 17.8183L86.9471 17.8067L92.3237 21.7174L90.2654 28.0379L95.6413 24.1273L101.017 28.0379L98.9712 21.7174L104.347 17.8183ZM123.87 17.8183H117.222L115.176 11.4978L113.117 17.8183L106.47 17.8067L111.846 21.7174L109.787 28.0379L115.163 24.1273L120.54 28.0379L118.493 21.7174L123.87 17.8183ZM143.392 17.8183H136.744L134.698 11.4978L132.639 17.8183L125.992 17.8067L131.368 21.7174L129.31 28.0379L134.686 24.1273L140.062 28.0379L138.016 21.7174L143.392 17.8183ZM163.072 17.8183H156.425L154.379 11.4978L152.32 17.8183L145.672 17.8067L151.049 21.7174L148.99 28.0379L154.366 24.1273L159.742 28.0379L157.696 21.7174L163.072 17.8183Z" fill="#00B67A"/>
<path d="M67.9441 43.5493H72.0186V44.95H73.9667V43.5493H74.9759V41.9427H73.9667V36.5139H71.4002L67.9441 41.9594V43.5493ZM72.0592 41.9427H69.9712V41.8774L71.9939 38.6722H72.0592V41.9427ZM77.1146 45.0696C77.6787 45.0696 78.1775 44.5911 78.1854 43.9988C78.178 43.7183 78.0624 43.4515 77.8628 43.2543C77.6633 43.057 77.3952 42.9445 77.1146 42.9403C76.5216 42.9403 76.0351 43.4137 76.0438 43.9988C76.0428 44.1397 76.0699 44.2794 76.1233 44.4097C76.1768 44.5401 76.2557 44.6585 76.3553 44.7581C76.4549 44.8578 76.5733 44.9366 76.7037 44.9901C76.834 45.0435 76.9737 45.0706 77.1146 45.0696ZM82.4593 45.0653C84.4364 45.0653 85.8414 44.0191 85.8371 42.5524C85.8414 41.5142 85.1614 40.7733 83.86 40.6203V40.555C84.8366 40.4144 85.5282 39.7597 85.5239 38.8121C85.5282 37.4361 84.2841 36.3979 82.476 36.3979C80.6555 36.3979 79.3288 37.4528 79.3121 38.9521H81.2609C81.2776 38.3757 81.7959 37.9878 82.476 37.9878C83.1227 37.9878 83.5635 38.3793 83.5591 38.9441C83.5635 39.5292 83.0444 39.933 82.2947 39.933H81.4748V41.383H82.2947C83.1473 41.383 83.7034 41.8035 83.6954 42.3958C83.7034 42.9932 83.193 43.4094 82.468 43.4094C81.7466 43.4094 81.2152 43.0266 81.1949 42.4705H79.1432C79.1598 43.9944 80.5315 45.0653 82.4593 45.0653Z" fill="black"/>
<path d="M93.1379 41.4591C92.9834 40.6558 92.3404 40.1425 91.2282 40.1425C90.0856 40.1425 89.307 40.7051 89.3099 41.5824C89.307 42.2748 89.7333 42.7315 90.6446 42.92L91.4537 43.0904C91.8894 43.1861 92.0939 43.3623 92.0939 43.6305C92.0939 43.9553 91.7415 44.1996 91.2101 44.1996C90.6968 44.1996 90.3633 43.9771 90.2676 43.5508L89.1772 43.6559C89.3164 44.5266 90.0486 45.0428 91.213 45.0428C92.3991 45.0428 93.2365 44.428 93.2401 43.529C93.2365 42.8519 92.8007 42.4379 91.9054 42.2436L91.0955 42.0703C90.6134 41.9623 90.422 41.7955 90.4249 41.5208C90.422 41.1996 90.7773 40.977 91.2442 40.977C91.7596 40.977 92.0315 41.2583 92.1185 41.5701L93.1379 41.4591ZM96.2322 45.0428C97.4248 45.0428 98.1846 44.3352 98.2651 43.3282H97.1957C97.1 43.8379 96.7324 44.1315 96.2409 44.1315C95.5427 44.1315 95.0917 43.5471 95.0917 42.5771C95.0917 41.6201 95.5521 41.0452 96.2409 41.0452C96.7788 41.0452 97.1094 41.391 97.1957 41.8485H98.2651C98.1875 40.819 97.3842 40.1425 96.2256 40.1425C94.8358 40.1425 93.9578 41.1467 93.9578 42.5959C93.9578 44.0322 94.8141 45.0428 96.2322 45.0428ZM101.253 45.0428C102.643 45.0428 103.527 44.0633 103.527 42.5959C103.527 41.1249 102.643 40.1425 101.253 40.1425C99.863 40.1425 98.9792 41.1249 98.9792 42.5959C98.9792 44.0633 99.863 45.0428 101.253 45.0428ZM101.259 44.1467C100.49 44.1467 100.113 43.4609 100.113 42.593C100.113 41.7245 100.49 41.0292 101.259 41.0292C102.016 41.0292 102.393 41.7252 102.393 42.593C102.393 43.4609 102.016 44.1467 101.259 44.1467ZM104.476 44.95H105.595V42.1602C105.595 41.5577 106.049 41.1314 106.663 41.1314C106.852 41.1314 107.087 41.1655 107.183 41.1967V40.1672C107.05 40.147 106.915 40.1368 106.781 40.1367C106.237 40.1367 105.783 40.4456 105.61 40.9951H105.561V40.2049H104.476V44.95ZM109.831 45.0428C110.937 45.0428 111.697 44.502 111.895 43.6769L110.85 43.5595C110.7 43.9611 110.328 44.1714 109.846 44.1714C109.123 44.1714 108.645 43.6958 108.635 42.883H111.941V42.5401C111.941 40.8748 110.94 40.1425 109.772 40.1425C108.413 40.1425 107.526 41.1409 107.526 42.6054C107.526 44.0945 108.401 45.0428 109.831 45.0428ZM108.638 42.129C108.672 41.5237 109.12 41.014 109.787 41.014C110.431 41.014 110.863 41.4838 110.869 42.129H108.638ZM114.201 44.0851H113.212L113.19 44.4309C113.138 45.2683 112.918 46.1209 112.829 46.495H113.582C113.731 46.1057 114.074 45.203 114.16 44.4251L114.201 44.0851ZM117.289 43.7762H120.307V44.95H121.401V43.7755H122.21V42.8337H121.401V38.6229H119.974L117.289 42.8642V43.7762ZM120.32 42.8337H118.463V42.7844L120.27 39.9207H120.32V42.8337ZM123.43 44.95H124.619L127.307 39.6024V38.6229H122.997V39.5799H126.12V39.6234L123.43 44.95ZM130.474 44.95H131.593V42.1602C131.593 41.5577 132.047 41.1314 132.662 41.1314C132.85 41.1314 133.085 41.1655 133.18 41.1967V40.1672C133.047 40.1469 132.913 40.1368 132.779 40.1367C132.235 40.1367 131.781 40.4456 131.608 40.9951H131.559V40.2049H130.474V44.95ZM135.829 45.0428C136.935 45.0428 137.695 44.502 137.893 43.6769L136.849 43.5595C136.697 43.9611 136.327 44.1714 135.845 44.1714C135.122 44.1714 134.643 43.6958 134.633 42.883H137.939V42.5401C137.939 40.8748 136.938 40.1425 135.771 40.1425C134.411 40.1425 133.525 41.1409 133.525 42.6054C133.525 44.0945 134.398 45.0428 135.829 45.0428ZM134.637 42.129C134.67 41.5237 135.118 41.014 135.786 41.014C136.428 41.014 136.861 41.4838 136.867 42.129H134.637ZM142.988 40.2049H141.799L140.705 43.7298H140.656L139.565 40.2049H138.373L140.063 44.95H141.298L142.988 40.2049ZM143.762 44.95H144.88V40.2049H143.762V44.95ZM144.324 39.5314C144.68 39.5314 144.97 39.2595 144.97 38.9253C144.97 38.5889 144.68 38.3163 144.324 38.3163C143.966 38.3163 143.675 38.5889 143.675 38.9253C143.675 39.2588 143.966 39.5314 144.324 39.5314ZM148.131 45.0428C149.238 45.0428 149.997 44.502 150.195 43.6769L149.151 43.5595C149 43.9611 148.629 44.1714 148.147 44.1714C147.424 44.1714 146.945 43.6958 146.936 42.883H150.242V42.5401C150.242 40.8748 149.241 40.1425 148.073 40.1425C146.713 40.1425 145.827 41.1409 145.827 42.6054C145.827 44.0945 146.701 45.0428 148.131 45.0428ZM146.939 42.129C146.973 41.5237 147.421 41.014 148.089 41.014C148.731 41.014 149.164 41.4838 149.169 42.129H146.939ZM152.141 44.95H153.309L154.2 41.7433H154.264L155.154 44.95H156.319L157.663 40.2049H156.52L155.697 43.5225H155.651L154.798 40.2049H153.671L152.818 43.5413H152.775L151.941 40.2049H150.801L152.141 44.95ZM162.194 41.4591C162.04 40.6558 161.397 40.1425 160.284 40.1425C159.142 40.1425 158.363 40.7051 158.366 41.5824C158.363 42.2748 158.79 42.7315 159.701 42.92L160.51 43.0904C160.946 43.1861 161.15 43.3623 161.15 43.6305C161.15 43.9553 160.798 44.1996 160.266 44.1996C159.753 44.1996 159.42 43.9771 159.324 43.5508L158.233 43.6559C158.373 44.5266 159.105 45.0428 160.269 45.0428C161.455 45.0428 162.293 44.428 162.296 43.529C162.293 42.8519 161.857 42.4379 160.962 42.2436L160.152 42.0703C159.67 41.9623 159.478 41.7955 159.481 41.5208C159.478 41.1996 159.834 40.977 160.3 40.977C160.816 40.977 161.088 41.2583 161.175 41.5701L162.194 41.4591Z" fill="#6E7D87"/>
</g>
<g clip-path="url(#clip1_38_1033)">
<path d="M209 0H383V58H209V0Z" fill="white"/>
<mask id="mask1_38_1033" style="mask-type:luminance" maskUnits="userSpaceOnUse" x="218" y="5" width="47" height="48">
<path d="M218.425 5.79999H264.825V52.2H218.425V5.79999Z" fill="white"/>
</mask>
<g mask="url(#mask1_38_1033)">
<path d="M264.462 24.1331H246.928L241.529 7.46097L236.1 24.1331L218.566 24.1012L232.747 34.4179L227.316 51.0893L241.497 40.7725L255.678 51.0893L250.281 34.4172L264.462 24.1331Z" fill="#00B67A"/>
<path d="M251.494 38.1858L250.281 34.4172L241.53 40.7733L251.494 38.1858Z" fill="#005128"/>
</g>
<path d="M293.825 17.8183H287.177L285.131 11.4978L283.073 17.8183L276.425 17.8067L281.801 21.7174L279.743 28.0379L285.119 24.1273L290.495 28.0379L288.449 21.7174L293.825 17.8183ZM313.347 17.8183H306.7L304.654 11.4978L302.595 17.8183L295.947 17.8067L301.324 21.7174L299.265 28.0379L304.641 24.1273L310.017 28.0379L307.971 21.7174L313.347 17.8183ZM332.87 17.8183H326.222L324.176 11.4978L322.117 17.8183L315.47 17.8067L320.846 21.7174L318.787 28.0379L324.163 24.1273L329.54 28.0379L327.493 21.7174L332.87 17.8183ZM352.392 17.8183H345.744L343.698 11.4978L341.639 17.8183L334.992 17.8067L340.368 21.7174L338.31 28.0379L343.686 24.1273L349.062 28.0379L347.016 21.7174L352.392 17.8183ZM372.072 17.8183H365.425L363.379 11.4978L361.32 17.8183L354.672 17.8067L360.049 21.7174L357.99 28.0379L363.366 24.1273L368.742 28.0379L366.696 21.7174L372.072 17.8183Z" fill="#00B67A"/>
<path d="M276.944 43.5493H281.019V44.95H282.967V43.5493H283.976V41.9427H282.967V36.5139H280.4L276.944 41.9594V43.5493ZM281.059 41.9427H278.971V41.8774L280.994 38.6722H281.059V41.9427ZM286.115 45.0696C286.679 45.0696 287.177 44.5911 287.185 43.9988C287.178 43.7183 287.062 43.4515 286.863 43.2543C286.663 43.057 286.395 42.9445 286.115 42.9403C285.522 42.9403 285.035 43.4137 285.044 43.9988C285.043 44.1397 285.07 44.2794 285.123 44.4097C285.177 44.5401 285.256 44.6585 285.355 44.7581C285.455 44.8578 285.573 44.9366 285.704 44.9901C285.834 45.0435 285.974 45.0706 286.115 45.0696ZM291.459 45.0653C293.436 45.0653 294.841 44.0191 294.837 42.5524C294.841 41.5142 294.161 40.7733 292.86 40.6203V40.555C293.837 40.4144 294.528 39.7597 294.524 38.8121C294.528 37.4361 293.284 36.3979 291.476 36.3979C289.656 36.3979 288.329 37.4528 288.312 38.9521H290.261C290.278 38.3757 290.796 37.9878 291.476 37.9878C292.123 37.9878 292.563 38.3793 292.559 38.9441C292.563 39.5292 292.044 39.933 291.295 39.933H290.475V41.383H291.295C292.147 41.383 292.703 41.8035 292.695 42.3958C292.703 42.9932 292.193 43.4094 291.468 43.4094C290.747 43.4094 290.215 43.0266 290.195 42.4705H288.143C288.16 43.9944 289.532 45.0653 291.459 45.0653Z" fill="black"/>
<path d="M302.138 41.4591C301.983 40.6558 301.34 40.1425 300.228 40.1425C299.086 40.1425 298.307 40.7051 298.31 41.5824C298.307 42.2748 298.733 42.7315 299.645 42.92L300.454 43.0904C300.889 43.1861 301.094 43.3623 301.094 43.6305C301.094 43.9553 300.741 44.1996 300.21 44.1996C299.697 44.1996 299.363 43.9771 299.268 43.5508L298.177 43.6559C298.316 44.5266 299.049 45.0428 300.213 45.0428C301.399 45.0428 302.236 44.428 302.24 43.529C302.236 42.8519 301.801 42.4379 300.905 42.2436L300.096 42.0703C299.613 41.9623 299.422 41.7955 299.425 41.5208C299.422 41.1996 299.777 40.977 300.244 40.977C300.76 40.977 301.031 41.2583 301.118 41.5701L302.138 41.4591ZM305.232 45.0428C306.425 45.0428 307.185 44.3352 307.265 43.3282H306.196C306.1 43.8379 305.732 44.1315 305.241 44.1315C304.543 44.1315 304.092 43.5471 304.092 42.5771C304.092 41.6201 304.552 41.0452 305.241 41.0452C305.779 41.0452 306.109 41.391 306.196 41.8485H307.265C307.187 40.819 306.384 40.1425 305.226 40.1425C303.836 40.1425 302.958 41.1467 302.958 42.5959C302.958 44.0322 303.814 45.0428 305.232 45.0428ZM310.253 45.0428C311.643 45.0428 312.527 44.0633 312.527 42.5959C312.527 41.1249 311.643 40.1425 310.253 40.1425C308.863 40.1425 307.979 41.1249 307.979 42.5959C307.979 44.0633 308.863 45.0428 310.253 45.0428ZM310.259 44.1467C309.49 44.1467 309.113 43.4609 309.113 42.593C309.113 41.7245 309.49 41.0292 310.259 41.0292C311.016 41.0292 311.393 41.7252 311.393 42.593C311.393 43.4609 311.016 44.1467 310.259 44.1467ZM313.476 44.95H314.595V42.1602C314.595 41.5577 315.049 41.1314 315.663 41.1314C315.852 41.1314 316.087 41.1655 316.183 41.1967V40.1672C316.05 40.147 315.915 40.1368 315.781 40.1367C315.237 40.1367 314.783 40.4456 314.61 40.9951H314.561V40.2049H313.476V44.95ZM318.831 45.0428C319.937 45.0428 320.697 44.502 320.895 43.6769L319.85 43.5595C319.7 43.9611 319.328 44.1714 318.846 44.1714C318.123 44.1714 317.645 43.6958 317.635 42.883H320.941V42.5401C320.941 40.8748 319.94 40.1425 318.772 40.1425C317.413 40.1425 316.526 41.1409 316.526 42.6054C316.526 44.0945 317.401 45.0428 318.831 45.0428ZM317.638 42.129C317.672 41.5237 318.12 41.014 318.787 41.014C319.431 41.014 319.863 41.4838 319.869 42.129H317.638ZM323.201 44.0851H322.212L322.19 44.4309C322.138 45.2683 321.918 46.1209 321.829 46.495H322.582C322.731 46.1057 323.074 45.203 323.16 44.4251L323.201 44.0851ZM326.289 43.7762H329.307V44.95H330.401V43.7755H331.21V42.8337H330.401V38.6229H328.974L326.289 42.8642V43.7762ZM329.32 42.8337H327.463V42.7844L329.27 39.9207H329.32V42.8337ZM332.43 44.95H333.619L336.307 39.6024V38.6229H331.997V39.5799H335.12V39.6234L332.43 44.95ZM339.474 44.95H340.593V42.1602C340.593 41.5577 341.047 41.1314 341.662 41.1314C341.85 41.1314 342.085 41.1655 342.18 41.1967V40.1672C342.047 40.1469 341.913 40.1368 341.779 40.1367C341.235 40.1367 340.781 40.4456 340.608 40.9951H340.559V40.2049H339.474V44.95ZM344.829 45.0428C345.935 45.0428 346.695 44.502 346.893 43.6769L345.849 43.5595C345.697 43.9611 345.327 44.1714 344.845 44.1714C344.122 44.1714 343.643 43.6958 343.633 42.883H346.939V42.5401C346.939 40.8748 345.938 40.1425 344.771 40.1425C343.411 40.1425 342.525 41.1409 342.525 42.6054C342.525 44.0945 343.398 45.0428 344.829 45.0428ZM343.637 42.129C343.67 41.5237 344.118 41.014 344.786 41.014C345.428 41.014 345.861 41.4838 345.867 42.129H343.637ZM351.988 40.2049H350.799L349.705 43.7298H349.656L348.565 40.2049H347.373L349.063 44.95H350.298L351.988 40.2049ZM352.762 44.95H353.88V40.2049H352.762V44.95ZM353.324 39.5314C353.68 39.5314 353.97 39.2595 353.97 38.9253C353.97 38.5889 353.68 38.3163 353.324 38.3163C352.966 38.3163 352.675 38.5889 352.675 38.9253C352.675 39.2588 352.966 39.5314 353.324 39.5314ZM357.131 45.0428C358.238 45.0428 358.997 44.502 359.195 43.6769L358.151 43.5595C358 43.9611 357.629 44.1714 357.147 44.1714C356.424 44.1714 355.945 43.6958 355.936 42.883H359.242V42.5401C359.242 40.8748 358.241 40.1425 357.073 40.1425C355.713 40.1425 354.826 41.1409 354.826 42.6054C354.826 44.0945 355.701 45.0428 357.131 45.0428ZM355.939 42.129C355.973 41.5237 356.421 41.014 357.088 41.014C357.731 41.014 358.164 41.4838 358.169 42.129H355.939ZM361.141 44.95H362.309L363.2 41.7433H363.264L364.154 44.95H365.319L366.663 40.2049H365.52L364.697 43.5225H364.651L363.798 40.2049H362.671L361.818 43.5413H361.775L360.941 40.2049H359.801L361.141 44.95ZM371.194 41.4591C371.04 40.6558 370.397 40.1425 369.284 40.1425C368.142 40.1425 367.363 40.7051 367.366 41.5824C367.363 42.2748 367.789 42.7315 368.701 42.92L369.51 43.0904C369.946 43.1861 370.15 43.3623 370.15 43.6305C370.15 43.9553 369.798 44.1996 369.266 44.1996C368.753 44.1996 368.42 43.9771 368.324 43.5508L367.233 43.6559C367.373 44.5266 368.105 45.0428 369.269 45.0428C370.455 45.0428 371.293 44.428 371.296 43.529C371.293 42.8519 370.857 42.4379 369.962 42.2436L369.152 42.0703C368.67 41.9623 368.478 41.7955 368.481 41.5208C368.478 41.1996 368.834 40.977 369.3 40.977C369.816 40.977 370.088 41.2583 370.175 41.5701L371.194 41.4591Z" fill="#6E7D87"/>
</g>
<g clip-path="url(#clip2_38_1033)">
<path d="M419 0H592V58H419V0Z" fill="white"/>
<mask id="mask2_38_1033" style="mask-type:luminance" maskUnits="userSpaceOnUse" x="428" y="5" width="47" height="48">
<path d="M428.371 5.79999H474.504V52.2H428.371V5.79999Z" fill="white"/>
</mask>
<g mask="url(#mask2_38_1033)">
<path d="M474.143 24.1331H456.71L451.342 7.46097L445.944 24.1331L428.511 24.1012L442.61 34.4179L437.211 51.0893L451.311 40.7725L465.41 51.0893L460.044 34.4172L474.143 24.1331Z" fill="#00B67A"/>
<path d="M461.25 38.1858L460.044 34.4172L451.343 40.7733L461.25 38.1858Z" fill="#005128"/>
</g>
<path d="M503.338 17.8183H496.728L494.693 11.4978L492.647 17.8183L486.038 17.8067L491.382 21.7174L489.336 28.0379L494.682 24.1273L500.027 28.0379L497.993 21.7174L503.338 17.8183ZM522.747 17.8183H516.138L514.104 11.4978L512.057 17.8183L505.447 17.8067L510.793 21.7174L508.747 28.0379L514.092 24.1273L519.437 28.0379L517.402 21.7174L522.747 17.8183ZM542.158 17.8183H535.549L533.514 11.4978L531.467 17.8183L524.858 17.8067L530.203 21.7174L528.157 28.0379L533.501 24.1273L538.847 28.0379L536.812 21.7174L542.158 17.8183ZM561.568 17.8183H554.959L552.924 11.4978L550.877 17.8183L544.268 17.8067L549.613 21.7174L547.566 28.0379L552.912 24.1273L558.257 28.0379L556.223 21.7174L561.568 17.8183ZM581.135 17.8183H574.526L572.491 11.4978L570.444 17.8183L563.835 17.8067L569.181 21.7174L567.134 28.0379L572.479 24.1273L577.824 28.0379L575.79 21.7174L581.135 17.8183Z" fill="#00B67A"/>
<path d="M486.554 43.5493H490.605V44.95H492.542V43.5493H493.545V41.9427H492.542V36.5139H489.99L486.554 41.9594V43.5493ZM490.645 41.9427H488.569V41.8774L490.58 38.6722H490.645V41.9427ZM495.671 45.0696C496.232 45.0696 496.728 44.5911 496.736 43.9988C496.729 43.7183 496.614 43.4515 496.415 43.2543C496.217 43.057 495.95 42.9445 495.671 42.9403C495.082 42.9403 494.598 43.4137 494.607 43.9988C494.606 44.1397 494.633 44.2794 494.686 44.4097C494.739 44.5401 494.817 44.6585 494.916 44.7581C495.016 44.8578 495.133 44.9366 495.263 44.9901C495.392 45.0435 495.531 45.0706 495.671 45.0696ZM500.985 45.0653C502.951 45.0653 504.348 44.0191 504.344 42.5524C504.348 41.5142 503.672 40.7733 502.378 40.6203V40.555C503.349 40.4144 504.037 39.7597 504.032 38.8121C504.037 37.4361 502.8 36.3979 501.002 36.3979C499.192 36.3979 497.873 37.4528 497.856 38.9521H499.794C499.81 38.3757 500.326 37.9878 501.002 37.9878C501.645 37.9878 502.083 38.3793 502.079 38.9441C502.083 39.5292 501.567 39.933 500.822 39.933H500.007V41.383H500.822C501.669 41.383 502.222 41.8035 502.214 42.3958C502.222 42.9932 501.715 43.4094 500.994 43.4094C500.277 43.4094 499.748 43.0266 499.728 42.4705H497.688C497.705 43.9944 499.069 45.0653 500.985 45.0653Z" fill="black"/>
<path d="M511.603 41.4591C511.449 40.6558 510.81 40.1425 509.704 40.1425C508.568 40.1425 507.794 40.7051 507.797 41.5824C507.794 42.2748 508.218 42.7315 509.124 42.92L509.928 43.0904C510.361 43.1861 510.565 43.3623 510.565 43.6305C510.565 43.9553 510.214 44.1996 509.686 44.1996C509.176 44.1996 508.844 43.9771 508.749 43.5508L507.665 43.6559C507.803 44.5266 508.531 45.0428 509.689 45.0428C510.868 45.0428 511.701 44.428 511.704 43.529C511.701 42.8519 511.267 42.4379 510.377 42.2436L509.572 42.0703C509.093 41.9623 508.902 41.7955 508.905 41.5208C508.902 41.1996 509.256 40.977 509.72 40.977C510.232 40.977 510.503 41.2583 510.589 41.5701L511.603 41.4591ZM514.679 45.0428C515.865 45.0428 516.62 44.3352 516.7 43.3282H515.637C515.542 43.8379 515.176 44.1315 514.688 44.1315C513.994 44.1315 513.545 43.5471 513.545 42.5771C513.545 41.6201 514.003 41.0452 514.688 41.0452C515.223 41.0452 515.551 41.391 515.637 41.8485H516.7C516.623 40.819 515.824 40.1425 514.673 40.1425C513.291 40.1425 512.418 41.1467 512.418 42.5959C512.418 44.0322 513.269 45.0428 514.679 45.0428ZM519.671 45.0428C521.053 45.0428 521.932 44.0633 521.932 42.5959C521.932 41.1249 521.053 40.1425 519.671 40.1425C518.289 40.1425 517.41 41.1249 517.41 42.5959C517.41 44.0633 518.289 45.0428 519.671 45.0428ZM519.677 44.1467C518.913 44.1467 518.538 43.4609 518.538 42.593C518.538 41.7245 518.913 41.0292 519.677 41.0292C520.43 41.0292 520.805 41.7252 520.805 42.593C520.805 43.4609 520.43 44.1467 519.677 44.1467ZM522.876 44.95H523.988V42.1602C523.988 41.5577 524.439 41.1314 525.05 41.1314C525.238 41.1314 525.471 41.1655 525.567 41.1967V40.1672C525.434 40.147 525.301 40.1368 525.167 40.1367C524.627 40.1367 524.175 40.4456 524.003 40.9951H523.954V40.2049H522.876V44.95ZM528.2 45.0428C529.3 45.0428 530.055 44.502 530.252 43.6769L529.213 43.5595C529.063 43.9611 528.694 44.1714 528.215 44.1714C527.496 44.1714 527.02 43.6958 527.011 42.883H530.298V42.5401C530.298 40.8748 529.303 40.1425 528.141 40.1425C526.79 40.1425 525.908 41.1409 525.908 42.6054C525.908 44.0945 526.778 45.0428 528.2 45.0428ZM527.014 42.129C527.048 41.5237 527.493 41.014 528.157 41.014C528.796 41.014 529.226 41.4838 529.232 42.129H527.014ZM532.544 44.0851H531.561L531.539 44.4309C531.487 45.2683 531.269 46.1209 531.18 46.495H531.929C532.077 46.1057 532.418 45.203 532.504 44.4251L532.544 44.0851ZM535.615 43.7762H538.616V44.95H539.704V43.7755H540.508V42.8337H539.704V38.6229H538.284L535.615 42.8642V43.7762ZM538.628 42.8337H536.782V42.7844L538.579 39.9207H538.628V42.8337ZM541.72 44.95H542.903L545.575 39.6024V38.6229H541.29V39.5799H544.395V39.6234L541.72 44.95ZM548.724 44.95H549.836V42.1602C549.836 41.5577 550.288 41.1314 550.9 41.1314C551.086 41.1314 551.32 41.1655 551.415 41.1967V40.1672C551.283 40.1469 551.149 40.1368 551.016 40.1367C550.475 40.1367 550.024 40.4456 549.851 40.9951H549.802V40.2049H548.724V44.95ZM554.048 45.0428C555.148 45.0428 555.904 44.502 556.1 43.6769L555.062 43.5595C554.912 43.9611 554.543 44.1714 554.064 44.1714C553.345 44.1714 552.869 43.6958 552.859 42.883H556.146V42.5401C556.146 40.8748 555.151 40.1425 553.99 40.1425C552.639 40.1425 551.757 41.1409 551.757 42.6054C551.757 44.0945 552.626 45.0428 554.048 45.0428ZM552.863 42.129C552.896 41.5237 553.342 41.014 554.006 41.014C554.644 41.014 555.075 41.4838 555.08 42.129H552.863ZM561.166 40.2049H559.984L558.896 43.7298H558.847L557.763 40.2049H556.578L558.258 44.95H559.486L561.166 40.2049ZM561.936 44.95H563.048V40.2049H561.936V44.95ZM562.495 39.5314C562.848 39.5314 563.137 39.2595 563.137 38.9253C563.137 38.5889 562.848 38.3163 562.495 38.3163C562.139 38.3163 561.85 38.5889 561.85 38.9253C561.85 39.2588 562.139 39.5314 562.495 39.5314ZM566.28 45.0428C567.38 45.0428 568.135 44.502 568.332 43.6769L567.293 43.5595C567.143 43.9611 566.774 44.1714 566.296 44.1714C565.576 44.1714 565.101 43.6958 565.091 42.883H568.378V42.5401C568.378 40.8748 567.383 40.1425 566.222 40.1425C564.87 40.1425 563.988 41.1409 563.988 42.6054C563.988 44.0945 564.858 45.0428 566.28 45.0428ZM565.094 42.129C565.128 41.5237 565.574 41.014 566.237 41.014C566.876 41.014 567.306 41.4838 567.312 42.129H565.094ZM570.267 44.95H571.428L572.313 41.7433H572.377L573.262 44.95H574.42L575.757 40.2049H574.62L573.803 43.5225H573.756L572.909 40.2049H571.788L570.94 43.5413H570.897L570.068 40.2049H568.934L570.267 44.95ZM580.262 41.4591C580.108 40.6558 579.469 40.1425 578.363 40.1425C577.227 40.1425 576.453 40.7051 576.456 41.5824C576.453 42.2748 576.877 42.7315 577.783 42.92L578.587 43.0904C579.021 43.1861 579.224 43.3623 579.224 43.6305C579.224 43.9553 578.874 44.1996 578.345 44.1996C577.835 44.1996 577.503 43.9771 577.408 43.5508L576.324 43.6559C576.462 44.5266 577.19 45.0428 578.348 45.0428C579.527 45.0428 580.36 44.428 580.364 43.529C580.36 42.8519 579.927 42.4379 579.037 42.2436L578.231 42.0703C577.752 41.9623 577.562 41.7955 577.565 41.5208C577.562 41.1996 577.915 40.977 578.379 40.977C578.892 40.977 579.162 41.2583 579.248 41.5701L580.262 41.4591Z" fill="#6E7D87"/>
</g>
<g clip-path="url(#clip3_38_1033)">
<path d="M627 0H801V58H627V0Z" fill="white"/>
<mask id="mask3_38_1033" style="mask-type:luminance" maskUnits="userSpaceOnUse" x="636" y="5" width="47" height="48">
<path d="M636.425 5.79999H682.825V52.2H636.425V5.79999Z" fill="white"/>
</mask>
<g mask="url(#mask3_38_1033)">
<path d="M682.462 24.1331H664.928L659.529 7.46097L654.1 24.1331L636.566 24.1012L650.747 34.4179L645.316 51.0893L659.497 40.7725L673.678 51.0893L668.281 34.4172L682.462 24.1331Z" fill="#00B67A"/>
<path d="M669.494 38.1858L668.281 34.4172L659.53 40.7733L669.494 38.1858Z" fill="#005128"/>
</g>
<path d="M711.825 17.8183H705.177L703.131 11.4978L701.073 17.8183L694.425 17.8067L699.801 21.7174L697.743 28.0379L703.119 24.1273L708.495 28.0379L706.449 21.7174L711.825 17.8183ZM731.347 17.8183H724.7L722.654 11.4978L720.595 17.8183L713.947 17.8067L719.324 21.7174L717.265 28.0379L722.641 24.1273L728.017 28.0379L725.971 21.7174L731.347 17.8183ZM750.87 17.8183H744.222L742.176 11.4978L740.117 17.8183L733.47 17.8067L738.846 21.7174L736.787 28.0379L742.163 24.1273L747.54 28.0379L745.493 21.7174L750.87 17.8183ZM770.392 17.8183H763.744L761.698 11.4978L759.639 17.8183L752.992 17.8067L758.368 21.7174L756.31 28.0379L761.686 24.1273L767.062 28.0379L765.016 21.7174L770.392 17.8183ZM790.072 17.8183H783.425L781.379 11.4978L779.32 17.8183L772.672 17.8067L778.049 21.7174L775.99 28.0379L781.366 24.1273L786.742 28.0379L784.696 21.7174L790.072 17.8183Z" fill="#00B67A"/>
<path d="M694.944 43.5493H699.019V44.95H700.967V43.5493H701.976V41.9427H700.967V36.5139H698.4L694.944 41.9594V43.5493ZM699.059 41.9427H696.971V41.8774L698.994 38.6722H699.059V41.9427ZM704.115 45.0696C704.679 45.0696 705.177 44.5911 705.185 43.9988C705.178 43.7183 705.062 43.4515 704.863 43.2543C704.663 43.057 704.395 42.9445 704.115 42.9403C703.522 42.9403 703.035 43.4137 703.044 43.9988C703.043 44.1397 703.07 44.2794 703.123 44.4097C703.177 44.5401 703.256 44.6585 703.355 44.7581C703.455 44.8578 703.573 44.9366 703.704 44.9901C703.834 45.0435 703.974 45.0706 704.115 45.0696ZM709.459 45.0653C711.436 45.0653 712.841 44.0191 712.837 42.5524C712.841 41.5142 712.161 40.7733 710.86 40.6203V40.555C711.837 40.4144 712.528 39.7597 712.524 38.8121C712.528 37.4361 711.284 36.3979 709.476 36.3979C707.656 36.3979 706.329 37.4528 706.312 38.9521H708.261C708.278 38.3757 708.796 37.9878 709.476 37.9878C710.123 37.9878 710.563 38.3793 710.559 38.9441C710.563 39.5292 710.044 39.933 709.295 39.933H708.475V41.383H709.295C710.147 41.383 710.703 41.8035 710.695 42.3958C710.703 42.9932 710.193 43.4094 709.468 43.4094C708.747 43.4094 708.215 43.0266 708.195 42.4705H706.143C706.16 43.9944 707.532 45.0653 709.459 45.0653Z" fill="black"/>
<path d="M720.138 41.4591C719.983 40.6558 719.34 40.1425 718.228 40.1425C717.086 40.1425 716.307 40.7051 716.31 41.5824C716.307 42.2748 716.733 42.7315 717.645 42.92L718.454 43.0904C718.889 43.1861 719.094 43.3623 719.094 43.6305C719.094 43.9553 718.741 44.1996 718.21 44.1996C717.697 44.1996 717.363 43.9771 717.268 43.5508L716.177 43.6559C716.316 44.5266 717.049 45.0428 718.213 45.0428C719.399 45.0428 720.236 44.428 720.24 43.529C720.236 42.8519 719.801 42.4379 718.905 42.2436L718.096 42.0703C717.613 41.9623 717.422 41.7955 717.425 41.5208C717.422 41.1996 717.777 40.977 718.244 40.977C718.76 40.977 719.031 41.2583 719.118 41.5701L720.138 41.4591ZM723.232 45.0428C724.425 45.0428 725.185 44.3352 725.265 43.3282H724.196C724.1 43.8379 723.732 44.1315 723.241 44.1315C722.543 44.1315 722.092 43.5471 722.092 42.5771C722.092 41.6201 722.552 41.0452 723.241 41.0452C723.779 41.0452 724.109 41.391 724.196 41.8485H725.265C725.187 40.819 724.384 40.1425 723.226 40.1425C721.836 40.1425 720.958 41.1467 720.958 42.5959C720.958 44.0322 721.814 45.0428 723.232 45.0428ZM728.253 45.0428C729.643 45.0428 730.527 44.0633 730.527 42.5959C730.527 41.1249 729.643 40.1425 728.253 40.1425C726.863 40.1425 725.979 41.1249 725.979 42.5959C725.979 44.0633 726.863 45.0428 728.253 45.0428ZM728.259 44.1467C727.49 44.1467 727.113 43.4609 727.113 42.593C727.113 41.7245 727.49 41.0292 728.259 41.0292C729.016 41.0292 729.393 41.7252 729.393 42.593C729.393 43.4609 729.016 44.1467 728.259 44.1467ZM731.476 44.95H732.595V42.1602C732.595 41.5577 733.049 41.1314 733.663 41.1314C733.852 41.1314 734.087 41.1655 734.183 41.1967V40.1672C734.05 40.147 733.915 40.1368 733.781 40.1367C733.237 40.1367 732.783 40.4456 732.61 40.9951H732.561V40.2049H731.476V44.95ZM736.831 45.0428C737.937 45.0428 738.697 44.502 738.895 43.6769L737.85 43.5595C737.7 43.9611 737.328 44.1714 736.846 44.1714C736.123 44.1714 735.645 43.6958 735.635 42.883H738.941V42.5401C738.941 40.8748 737.94 40.1425 736.772 40.1425C735.413 40.1425 734.526 41.1409 734.526 42.6054C734.526 44.0945 735.401 45.0428 736.831 45.0428ZM735.638 42.129C735.672 41.5237 736.12 41.014 736.787 41.014C737.431 41.014 737.863 41.4838 737.869 42.129H735.638ZM741.201 44.0851H740.212L740.19 44.4309C740.138 45.2683 739.918 46.1209 739.829 46.495H740.582C740.731 46.1057 741.074 45.203 741.16 44.4251L741.201 44.0851ZM744.289 43.7762H747.307V44.95H748.401V43.7755H749.21V42.8337H748.401V38.6229H746.974L744.289 42.8642V43.7762ZM747.32 42.8337H745.463V42.7844L747.27 39.9207H747.32V42.8337ZM750.43 44.95H751.619L754.307 39.6024V38.6229H749.997V39.5799H753.12V39.6234L750.43 44.95ZM757.474 44.95H758.593V42.1602C758.593 41.5577 759.047 41.1314 759.662 41.1314C759.85 41.1314 760.085 41.1655 760.18 41.1967V40.1672C760.047 40.1469 759.913 40.1368 759.779 40.1367C759.235 40.1367 758.781 40.4456 758.608 40.9951H758.559V40.2049H757.474V44.95ZM762.829 45.0428C763.935 45.0428 764.695 44.502 764.893 43.6769L763.849 43.5595C763.697 43.9611 763.327 44.1714 762.845 44.1714C762.122 44.1714 761.643 43.6958 761.633 42.883H764.939V42.5401C764.939 40.8748 763.938 40.1425 762.771 40.1425C761.411 40.1425 760.525 41.1409 760.525 42.6054C760.525 44.0945 761.398 45.0428 762.829 45.0428ZM761.637 42.129C761.67 41.5237 762.118 41.014 762.786 41.014C763.428 41.014 763.861 41.4838 763.867 42.129H761.637ZM769.988 40.2049H768.799L767.705 43.7298H767.656L766.565 40.2049H765.373L767.063 44.95H768.298L769.988 40.2049ZM770.762 44.95H771.88V40.2049H770.762V44.95ZM771.324 39.5314C771.68 39.5314 771.97 39.2595 771.97 38.9253C771.97 38.5889 771.68 38.3163 771.324 38.3163C770.966 38.3163 770.675 38.5889 770.675 38.9253C770.675 39.2588 770.966 39.5314 771.324 39.5314ZM775.131 45.0428C776.238 45.0428 776.997 44.502 777.195 43.6769L776.151 43.5595C776 43.9611 775.629 44.1714 775.147 44.1714C774.424 44.1714 773.945 43.6958 773.936 42.883H777.242V42.5401C777.242 40.8748 776.241 40.1425 775.073 40.1425C773.713 40.1425 772.826 41.1409 772.826 42.6054C772.826 44.0945 773.701 45.0428 775.131 45.0428ZM773.939 42.129C773.973 41.5237 774.421 41.014 775.088 41.014C775.731 41.014 776.164 41.4838 776.169 42.129H773.939ZM779.141 44.95H780.309L781.2 41.7433H781.264L782.154 44.95H783.319L784.663 40.2049H783.52L782.697 43.5225H782.651L781.798 40.2049H780.671L779.818 43.5413H779.775L778.941 40.2049H777.801L779.141 44.95ZM789.194 41.4591C789.04 40.6558 788.397 40.1425 787.284 40.1425C786.142 40.1425 785.363 40.7051 785.366 41.5824C785.363 42.2748 785.789 42.7315 786.701 42.92L787.51 43.0904C787.946 43.1861 788.15 43.3623 788.15 43.6305C788.15 43.9553 787.798 44.1996 787.266 44.1996C786.753 44.1996 786.42 43.9771 786.324 43.5508L785.233 43.6559C785.373 44.5266 786.105 45.0428 787.269 45.0428C788.455 45.0428 789.293 44.428 789.296 43.529C789.293 42.8519 788.857 42.4379 787.962 42.2436L787.152 42.0703C786.67 41.9623 786.478 41.7955 786.481 41.5208C786.478 41.1996 786.834 40.977 787.3 40.977C787.816 40.977 788.088 41.2583 788.175 41.5701L789.194 41.4591Z" fill="#6E7D87"/>
</g>
<g clip-path="url(#clip4_38_1033)">
<path d="M836 0H1010V58H836V0Z" fill="white"/>
<mask id="mask4_38_1033" style="mask-type:luminance" maskUnits="userSpaceOnUse" x="845" y="5" width="47" height="48">
<path d="M845.425 5.79999H891.825V52.2H845.425V5.79999Z" fill="white"/>
</mask>
<g mask="url(#mask4_38_1033)">
<path d="M891.462 24.1331H873.928L868.529 7.46097L863.1 24.1331L845.566 24.1012L859.747 34.4179L854.316 51.0893L868.497 40.7725L882.678 51.0893L877.281 34.4172L891.462 24.1331Z" fill="#00B67A"/>
<path d="M878.494 38.1858L877.281 34.4172L868.53 40.7733L878.494 38.1858Z" fill="#005128"/>
</g>
<path d="M920.825 17.8183H914.177L912.131 11.4978L910.073 17.8183L903.425 17.8067L908.801 21.7174L906.743 28.0379L912.119 24.1273L917.495 28.0379L915.449 21.7174L920.825 17.8183ZM940.347 17.8183H933.7L931.654 11.4978L929.595 17.8183L922.947 17.8067L928.324 21.7174L926.265 28.0379L931.641 24.1273L937.017 28.0379L934.971 21.7174L940.347 17.8183ZM959.87 17.8183H953.222L951.176 11.4978L949.117 17.8183L942.47 17.8067L947.846 21.7174L945.787 28.0379L951.163 24.1273L956.54 28.0379L954.493 21.7174L959.87 17.8183ZM979.392 17.8183H972.744L970.698 11.4978L968.639 17.8183L961.992 17.8067L967.368 21.7174L965.31 28.0379L970.686 24.1273L976.062 28.0379L974.016 21.7174L979.392 17.8183ZM999.072 17.8183H992.425L990.379 11.4978L988.32 17.8183L981.672 17.8067L987.049 21.7174L984.99 28.0379L990.366 24.1273L995.742 28.0379L993.696 21.7174L999.072 17.8183Z" fill="#00B67A"/>
<path d="M903.944 43.5493H908.019V44.95H909.967V43.5493H910.976V41.9427H909.967V36.5139H907.4L903.944 41.9594V43.5493ZM908.059 41.9427H905.971V41.8774L907.994 38.6722H908.059V41.9427ZM913.115 45.0696C913.679 45.0696 914.177 44.5911 914.185 43.9988C914.178 43.7183 914.062 43.4515 913.863 43.2543C913.663 43.057 913.395 42.9445 913.115 42.9403C912.522 42.9403 912.035 43.4137 912.044 43.9988C912.043 44.1397 912.07 44.2794 912.123 44.4097C912.177 44.5401 912.256 44.6585 912.355 44.7581C912.455 44.8578 912.573 44.9366 912.704 44.9901C912.834 45.0435 912.974 45.0706 913.115 45.0696ZM918.459 45.0653C920.436 45.0653 921.841 44.0191 921.837 42.5524C921.841 41.5142 921.161 40.7733 919.86 40.6203V40.555C920.837 40.4144 921.528 39.7597 921.524 38.8121C921.528 37.4361 920.284 36.3979 918.476 36.3979C916.656 36.3979 915.329 37.4528 915.312 38.9521H917.261C917.278 38.3757 917.796 37.9878 918.476 37.9878C919.123 37.9878 919.563 38.3793 919.559 38.9441C919.563 39.5292 919.044 39.933 918.295 39.933H917.475V41.383H918.295C919.147 41.383 919.703 41.8035 919.695 42.3958C919.703 42.9932 919.193 43.4094 918.468 43.4094C917.747 43.4094 917.215 43.0266 917.195 42.4705H915.143C915.16 43.9944 916.532 45.0653 918.459 45.0653Z" fill="black"/>
<path d="M929.138 41.4591C928.983 40.6558 928.34 40.1425 927.228 40.1425C926.086 40.1425 925.307 40.7051 925.31 41.5824C925.307 42.2748 925.733 42.7315 926.645 42.92L927.454 43.0904C927.889 43.1861 928.094 43.3623 928.094 43.6305C928.094 43.9553 927.742 44.1996 927.21 44.1996C926.697 44.1996 926.363 43.9771 926.268 43.5508L925.177 43.6559C925.316 44.5266 926.049 45.0428 927.213 45.0428C928.399 45.0428 929.236 44.428 929.24 43.529C929.236 42.8519 928.801 42.4379 927.905 42.2436L927.096 42.0703C926.613 41.9623 926.422 41.7955 926.425 41.5208C926.422 41.1996 926.777 40.977 927.244 40.977C927.76 40.977 928.032 41.2583 928.119 41.5701L929.138 41.4591ZM932.232 45.0428C933.425 45.0428 934.185 44.3352 934.265 43.3282H933.196C933.1 43.8379 932.732 44.1315 932.241 44.1315C931.543 44.1315 931.092 43.5471 931.092 42.5771C931.092 41.6201 931.552 41.0452 932.241 41.0452C932.779 41.0452 933.109 41.391 933.196 41.8485H934.265C934.187 40.819 933.384 40.1425 932.226 40.1425C930.836 40.1425 929.958 41.1467 929.958 42.5959C929.958 44.0322 930.814 45.0428 932.232 45.0428ZM937.253 45.0428C938.643 45.0428 939.527 44.0633 939.527 42.5959C939.527 41.1249 938.643 40.1425 937.253 40.1425C935.863 40.1425 934.979 41.1249 934.979 42.5959C934.979 44.0633 935.863 45.0428 937.253 45.0428ZM937.259 44.1467C936.49 44.1467 936.113 43.4609 936.113 42.593C936.113 41.7245 936.49 41.0292 937.259 41.0292C938.016 41.0292 938.393 41.7252 938.393 42.593C938.393 43.4609 938.016 44.1467 937.259 44.1467ZM940.476 44.95H941.595V42.1602C941.595 41.5577 942.049 41.1314 942.663 41.1314C942.852 41.1314 943.087 41.1655 943.183 41.1967V40.1672C943.05 40.147 942.915 40.1368 942.781 40.1367C942.237 40.1367 941.783 40.4456 941.61 40.9951H941.561V40.2049H940.476V44.95ZM945.831 45.0428C946.937 45.0428 947.697 44.502 947.895 43.6769L946.85 43.5595C946.7 43.9611 946.328 44.1714 945.846 44.1714C945.123 44.1714 944.645 43.6958 944.635 42.883H947.941V42.5401C947.941 40.8748 946.94 40.1425 945.772 40.1425C944.413 40.1425 943.526 41.1409 943.526 42.6054C943.526 44.0945 944.401 45.0428 945.831 45.0428ZM944.638 42.129C944.672 41.5237 945.12 41.014 945.787 41.014C946.431 41.014 946.863 41.4838 946.869 42.129H944.638ZM950.201 44.0851H949.212L949.19 44.4309C949.138 45.2683 948.918 46.1209 948.829 46.495H949.582C949.731 46.1057 950.074 45.203 950.16 44.4251L950.201 44.0851ZM953.289 43.7762H956.307V44.95H957.401V43.7755H958.21V42.8337H957.401V38.6229H955.974L953.289 42.8642V43.7762ZM956.32 42.8337H954.463V42.7844L956.27 39.9207H956.32V42.8337ZM959.43 44.95H960.619L963.307 39.6024V38.6229H958.997V39.5799H962.12V39.6234L959.43 44.95ZM966.474 44.95H967.593V42.1602C967.593 41.5577 968.047 41.1314 968.662 41.1314C968.85 41.1314 969.085 41.1655 969.18 41.1967V40.1672C969.047 40.1469 968.913 40.1368 968.779 40.1367C968.235 40.1367 967.781 40.4456 967.608 40.9951H967.559V40.2049H966.474V44.95ZM971.829 45.0428C972.935 45.0428 973.695 44.502 973.893 43.6769L972.849 43.5595C972.697 43.9611 972.327 44.1714 971.845 44.1714C971.122 44.1714 970.643 43.6958 970.633 42.883H973.939V42.5401C973.939 40.8748 972.938 40.1425 971.771 40.1425C970.411 40.1425 969.525 41.1409 969.525 42.6054C969.525 44.0945 970.398 45.0428 971.829 45.0428ZM970.637 42.129C970.67 41.5237 971.118 41.014 971.786 41.014C972.428 41.014 972.861 41.4838 972.867 42.129H970.637ZM978.988 40.2049H977.799L976.705 43.7298H976.656L975.565 40.2049H974.373L976.063 44.95H977.298L978.988 40.2049ZM979.762 44.95H980.88V40.2049H979.762V44.95ZM980.324 39.5314C980.68 39.5314 980.97 39.2595 980.97 38.9253C980.97 38.5889 980.68 38.3163 980.324 38.3163C979.966 38.3163 979.675 38.5889 979.675 38.9253C979.675 39.2588 979.966 39.5314 980.324 39.5314ZM984.131 45.0428C985.238 45.0428 985.997 44.502 986.195 43.6769L985.151 43.5595C985 43.9611 984.629 44.1714 984.147 44.1714C983.424 44.1714 982.945 43.6958 982.936 42.883H986.242V42.5401C986.242 40.8748 985.241 40.1425 984.073 40.1425C982.713 40.1425 981.827 41.1409 981.827 42.6054C981.827 44.0945 982.701 45.0428 984.131 45.0428ZM982.939 42.129C982.973 41.5237 983.421 41.014 984.089 41.014C984.731 41.014 985.164 41.4838 985.169 42.129H982.939ZM988.141 44.95H989.309L990.2 41.7433H990.264L991.154 44.95H992.319L993.663 40.2049H992.52L991.697 43.5225H991.651L990.798 40.2049H989.671L988.818 43.5413H988.775L987.941 40.2049H986.801L988.141 44.95ZM998.194 41.4591C998.04 40.6558 997.397 40.1425 996.284 40.1425C995.142 40.1425 994.363 40.7051 994.366 41.5824C994.363 42.2748 994.79 42.7315 995.701 42.92L996.51 43.0904C996.946 43.1861 997.15 43.3623 997.15 43.6305C997.15 43.9553 996.798 44.1996 996.266 44.1996C995.753 44.1996 995.42 43.9771 995.324 43.5508L994.233 43.6559C994.373 44.5266 995.105 45.0428 996.269 45.0428C997.455 45.0428 998.293 44.428 998.296 43.529C998.293 42.8519 997.857 42.4379 996.962 42.2436L996.152 42.0703C995.67 41.9623 995.478 41.7955 995.481 41.5208C995.478 41.1996 995.834 40.977 996.3 40.977C996.816 40.977 997.088 41.2583 997.175 41.5701L998.194 41.4591Z" fill="#6E7D87"/>
</g>
<defs>
<clipPath id="clip0_38_1033">
<rect width="174" height="58" fill="white"/>
</clipPath>
<clipPath id="clip1_38_1033">
<rect width="174" height="58" fill="white" transform="translate(209)"/>
</clipPath>
<clipPath id="clip2_38_1033">
<rect width="173" height="58" fill="white" transform="translate(419)"/>
</clipPath>
<clipPath id="clip3_38_1033">
<rect width="174" height="58" fill="white" transform="translate(627)"/>
</clipPath>
<clipPath id="clip4_38_1033">
<rect width="174" height="58" fill="white" transform="translate(836)"/>
</clipPath>
</defs>
</svg>
