<svg width="198" height="52" viewBox="0 0 198 52" fill="none" xmlns="http://www.w3.org/2000/svg">
<path d="M0 16C0 10.4772 4.47715 6 10 6V47H0V16Z" fill="#3634A3"/>
<rect x="28" y="6" width="12" height="41" fill="#3634A3"/>
<rect width="12.5761" height="36.1082" transform="matrix(0.0394068 0.999223 -0.998616 0.0525883 36.0582 18.951)" fill="#3634A3"/>
<path d="M63.08 22.44L52.28 46.92H46.808L50.84 37.668L43.676 22.44H49.652L55.016 35.724L52.208 35.688L57.5 22.44H63.08ZM70.2974 46.92H64.8614V22.44H70.2974V46.92ZM83.8334 30.72C83.8334 32.64 83.4494 34.26 82.6814 35.58C81.9374 36.9 80.9654 37.896 79.7654 38.568C78.5894 39.24 77.3174 39.576 75.9494 39.576C74.5094 39.576 73.2614 39.216 72.2054 38.496C71.1734 37.752 70.3814 36.72 69.8294 35.4C69.2774 34.056 69.0014 32.496 69.0014 30.72C69.0014 28.92 69.2774 27.36 69.8294 26.04C70.3814 24.72 71.1734 23.7 72.2054 22.98C73.2614 22.236 74.5094 21.864 75.9494 21.864C77.3174 21.864 78.5894 22.2 79.7654 22.872C80.9654 23.544 81.9374 24.54 82.6814 25.86C83.4494 27.156 83.8334 28.776 83.8334 30.72ZM78.1094 30.72C78.1094 29.856 77.9294 29.124 77.5694 28.524C77.2094 27.924 76.7294 27.468 76.1294 27.156C75.5294 26.844 74.8694 26.688 74.1494 26.688C73.5254 26.688 72.9134 26.844 72.3134 27.156C71.7374 27.444 71.2574 27.888 70.8734 28.488C70.4894 29.088 70.2974 29.832 70.2974 30.72C70.2974 31.608 70.4894 32.352 70.8734 32.952C71.2574 33.552 71.7374 34.008 72.3134 34.32C72.9134 34.608 73.5254 34.752 74.1494 34.752C74.8694 34.752 75.5294 34.596 76.1294 34.284C76.7294 33.972 77.2094 33.516 77.5694 32.916C77.9294 32.316 78.1094 31.584 78.1094 30.72ZM95.5402 39.36C93.6202 39.36 91.9522 39.012 90.5362 38.316C89.1442 37.596 88.0642 36.588 87.2962 35.292C86.5282 33.996 86.1442 32.472 86.1442 30.72C86.1442 28.944 86.5162 27.408 87.2602 26.112C88.0042 24.816 89.0722 23.82 90.4642 23.124C91.8802 22.428 93.5482 22.08 95.4682 22.08C97.3882 22.08 99.0082 22.416 100.328 23.088C101.648 23.736 102.656 24.684 103.352 25.932C104.048 27.18 104.396 28.692 104.396 30.468C104.396 30.732 104.396 30.996 104.396 31.26C104.396 31.5 104.372 31.704 104.324 31.872H89.2042V28.848H99.4282L98.1322 30.504C98.2522 30.336 98.3482 30.132 98.4202 29.892C98.5162 29.628 98.5642 29.412 98.5642 29.244C98.5642 28.524 98.4322 27.9 98.1682 27.372C97.9042 26.844 97.5322 26.436 97.0522 26.148C96.5722 25.86 96.0082 25.716 95.3602 25.716C94.5442 25.716 93.8602 25.896 93.3082 26.256C92.7562 26.616 92.3362 27.168 92.0482 27.912C91.7842 28.632 91.6402 29.544 91.6162 30.648C91.6162 31.656 91.7602 32.52 92.0482 33.24C92.3362 33.96 92.7682 34.512 93.3442 34.896C93.9202 35.256 94.6282 35.436 95.4682 35.436C96.4282 35.436 97.2442 35.256 97.9162 34.896C98.6122 34.536 99.1642 33.996 99.5722 33.276L104.432 34.464C103.568 36.096 102.392 37.32 100.904 38.136C99.4402 38.952 97.6522 39.36 95.5402 39.36ZM113.117 22.44V39H107.753V22.44H113.117ZM117.905 28.056C117.617 27.768 117.305 27.54 116.969 27.372C116.657 27.204 116.261 27.12 115.781 27.12C115.253 27.12 114.785 27.264 114.377 27.552C113.969 27.84 113.657 28.26 113.441 28.812C113.225 29.364 113.117 30.036 113.117 30.828L111.821 28.92C111.821 27.6 112.073 26.424 112.577 25.392C113.105 24.36 113.789 23.544 114.629 22.944C115.469 22.344 116.345 22.044 117.257 22.044C117.857 22.044 118.433 22.164 118.985 22.404C119.537 22.644 119.957 22.98 120.245 23.412L117.905 28.056ZM124.786 28.452V22.98H143.866V28.452H124.786ZM140.014 13.8H146.098V39H140.014V13.8ZM123.094 13.8H129.178V39H123.094V13.8ZM149.882 30.72C149.882 28.968 150.29 27.444 151.106 26.148C151.922 24.852 153.05 23.844 154.49 23.124C155.93 22.404 157.55 22.044 159.35 22.044C161.15 22.044 162.758 22.404 164.174 23.124C165.614 23.844 166.742 24.852 167.558 26.148C168.398 27.444 168.818 28.968 168.818 30.72C168.818 32.448 168.398 33.96 167.558 35.256C166.742 36.552 165.614 37.56 164.174 38.28C162.758 39 161.15 39.36 159.35 39.36C157.55 39.36 155.93 39 154.49 38.28C153.05 37.56 151.922 36.552 151.106 35.256C150.29 33.96 149.882 32.448 149.882 30.72ZM155.462 30.72C155.462 31.584 155.642 32.328 156.002 32.952C156.362 33.552 156.83 34.02 157.406 34.356C157.982 34.692 158.63 34.86 159.35 34.86C160.046 34.86 160.682 34.692 161.258 34.356C161.858 34.02 162.326 33.552 162.662 32.952C163.022 32.328 163.202 31.584 163.202 30.72C163.202 29.856 163.022 29.112 162.662 28.488C162.326 27.864 161.858 27.384 161.258 27.048C160.682 26.712 160.046 26.544 159.35 26.544C158.63 26.544 157.982 26.712 157.406 27.048C156.83 27.384 156.362 27.864 156.002 28.488C155.642 29.112 155.462 29.856 155.462 30.72ZM172.989 32.988C173.829 33.684 174.585 34.236 175.257 34.644C175.953 35.028 176.565 35.304 177.093 35.472C177.621 35.616 178.077 35.688 178.461 35.688C179.013 35.688 179.421 35.568 179.685 35.328C179.949 35.088 180.081 34.776 180.081 34.392C180.081 34.032 179.973 33.732 179.757 33.492C179.541 33.228 179.169 32.976 178.641 32.736C178.137 32.496 177.441 32.244 176.553 31.98C175.761 31.692 175.005 31.356 174.285 30.972C173.589 30.564 173.013 30.024 172.557 29.352C172.101 28.68 171.873 27.816 171.873 26.76C171.873 25.752 172.137 24.9 172.665 24.204C173.217 23.508 173.949 22.98 174.861 22.62C175.797 22.26 176.865 22.08 178.065 22.08C179.025 22.08 179.913 22.188 180.729 22.404C181.569 22.62 182.349 22.908 183.069 23.268C183.813 23.628 184.509 24.048 185.157 24.528L183.213 28.056C182.517 27.408 181.725 26.88 180.837 26.472C179.949 26.04 179.133 25.824 178.389 25.824C177.885 25.824 177.501 25.92 177.237 26.112C176.997 26.304 176.877 26.556 176.877 26.868C176.877 27.228 177.021 27.528 177.309 27.768C177.621 28.008 178.053 28.236 178.605 28.452C179.181 28.644 179.877 28.896 180.693 29.208C181.557 29.52 182.349 29.88 183.069 30.288C183.813 30.696 184.401 31.212 184.833 31.836C185.289 32.46 185.517 33.288 185.517 34.32C185.517 36.096 184.965 37.44 183.861 38.352C182.781 39.24 181.257 39.684 179.289 39.684C178.089 39.684 176.973 39.54 175.941 39.252C174.933 38.988 173.997 38.628 173.133 38.172C172.269 37.692 171.465 37.164 170.721 36.588L172.989 32.988ZM186.563 22.44H197.651V26.94H186.563V22.44ZM189.479 16.68H194.699V39H189.479V16.68Z" fill="black"/>
</svg>
