<svg width="306" height="255" viewBox="0 0 306 255" fill="none" xmlns="http://www.w3.org/2000/svg">
<g filter="url(#filter0_d_33_1032)">
<rect width="86.1295" height="223.367" transform="matrix(0.16433 0.986405 -0.976077 0.217426 231.195 92.0724)" fill="#3634A3"/>
</g>
<g filter="url(#filter1_d_33_1032)">
<rect width="74.1307" height="281.26" transform="matrix(0.987087 -0.160185 0.129208 0.991617 170.551 11.8746)" fill="#3634A3"/>
</g>
<g filter="url(#filter2_d_33_1032)">
<path d="M7.8817 100.04C3.52876 66.6332 27.5359 35.083 60.7902 29.6865V29.6865L97.1314 308.589L36.3412 318.454L7.8817 100.04Z" fill="#3634A3"/>
</g>
<path d="M89.6856 170.415C89.3279 168.769 89.4732 167.368 90.1216 166.213C90.77 165.058 91.8815 164.309 93.456 163.967C94.4056 163.76 95.1763 163.72 95.7684 163.847C96.3652 163.972 96.9243 164.245 97.4456 164.666C97.7611 164.923 97.8063 165.165 97.5812 165.394L96.8804 166.101C96.676 166.31 96.4057 166.296 96.0694 166.06C95.7923 165.865 95.4643 165.724 95.0855 165.636C94.7067 165.549 94.3098 165.55 93.8947 165.64C92.8927 165.858 92.2483 166.33 91.9615 167.057C91.6737 167.779 91.6594 168.737 91.9187 169.93C92.1779 171.123 92.5888 171.99 93.1513 172.533C93.7128 173.07 94.4946 173.23 95.4966 173.012C95.9833 172.906 96.3928 172.768 96.7252 172.595C97.0565 172.418 97.3516 172.167 97.6105 171.841L97.3321 170.56L95.779 170.897C95.4212 170.975 95.2085 170.859 95.1411 170.549L94.9576 169.704C94.8902 169.394 95.0355 169.2 95.3933 169.122L98.4995 168.447C98.8574 168.369 99.07 168.486 99.1374 168.796L99.9275 172.432C99.3663 173.068 98.7658 173.559 98.126 173.902C97.4909 174.245 96.713 174.517 95.7921 174.717C94.2414 175.054 92.9242 174.833 91.8405 174.054C90.7616 173.274 90.0433 172.061 89.6856 170.415ZM102.367 173.033C102.08 173.096 101.906 172.984 101.844 172.697L100.398 166.041C100.335 165.755 100.447 165.581 100.734 165.518L101.865 165.273C102.151 165.21 102.325 165.322 102.387 165.609L102.515 166.196L102.543 166.189C102.601 165.857 102.75 165.542 102.99 165.245C103.231 164.948 103.549 164.757 103.945 164.671C104.217 164.612 104.448 164.596 104.639 164.625C104.82 164.65 104.909 164.751 104.907 164.926L104.892 165.821C104.89 166.022 104.774 166.107 104.543 166.077C104.409 166.061 104.285 166.066 104.171 166.091C103.713 166.19 103.393 166.547 103.212 167.161C103.03 167.775 103.054 168.607 103.282 169.657L103.848 172.262C103.91 172.548 103.798 172.722 103.512 172.785L102.367 173.033ZM106.346 168.234C106.083 167.027 106.177 166.009 106.627 165.182C107.081 164.354 107.86 163.82 108.962 163.58C110.241 163.302 111.262 163.425 112.025 163.949C112.789 164.473 113.329 165.465 113.646 166.925C113.708 167.211 113.606 167.383 113.339 167.441L108.615 168.468C108.863 169.243 109.167 169.699 109.527 169.836C109.886 169.973 110.274 169.996 110.689 169.906C111.085 169.82 111.376 169.701 111.564 169.551C111.751 169.4 111.896 169.219 112 169.006C112.116 168.761 112.31 168.684 112.579 168.775L113.39 169.056C113.709 169.167 113.794 169.363 113.645 169.646C113.43 170.057 113.145 170.391 112.791 170.648C112.437 170.905 111.838 171.125 110.994 171.309C109.624 171.606 108.573 171.47 107.839 170.9C107.106 170.33 106.608 169.441 106.346 168.234ZM108.311 167.035L111.424 166.358C111.312 165.843 111.092 165.451 110.764 165.182C110.435 164.909 109.989 164.834 109.426 164.956C108.977 165.054 108.656 165.288 108.462 165.66C108.267 166.027 108.217 166.486 108.311 167.035ZM115.129 168.161C114.922 167.207 115.227 166.416 116.045 165.789C116.863 165.161 117.854 164.706 119.016 164.424L118.954 164.137C118.859 163.698 118.682 163.412 118.423 163.278C118.164 163.145 117.839 163.12 117.447 163.205C117.171 163.266 116.934 163.36 116.737 163.487C116.543 163.609 116.379 163.74 116.245 163.879C116.114 164.012 115.998 164.145 115.896 164.277C115.718 164.516 115.539 164.565 115.359 164.424L114.606 163.823C114.419 163.674 114.414 163.48 114.592 163.241C114.727 163.057 114.892 162.886 115.088 162.729C115.288 162.57 115.562 162.404 115.908 162.228C116.254 162.048 116.72 161.894 117.307 161.767C118.3 161.551 119.111 161.615 119.74 161.958C120.374 162.3 120.788 162.917 120.981 163.809L121.963 168.325C122.025 168.612 121.913 168.786 121.627 168.848L120.453 169.103C120.195 169.159 120.035 169.044 119.973 168.758L119.926 168.543L119.912 168.546C119.69 168.879 119.395 169.153 119.027 169.368C118.662 169.577 118.315 169.718 117.986 169.789C117.204 169.959 116.568 169.897 116.08 169.604C115.59 169.305 115.273 168.825 115.129 168.161ZM117.238 167.658C117.275 167.825 117.34 167.963 117.433 168.073C117.526 168.178 117.65 168.243 117.806 168.269C117.961 168.295 118.128 168.289 118.304 168.251C118.547 168.198 118.776 168.113 118.991 167.997C119.205 167.88 119.426 167.667 119.654 167.358L119.317 165.805C118.535 166.07 118.023 166.303 117.782 166.506C117.541 166.708 117.378 166.898 117.292 167.077C117.211 167.254 117.193 167.448 117.238 167.658ZM122.438 162.301C122.156 162.362 121.989 162.273 121.938 162.035L121.782 161.319C121.73 161.081 121.845 160.931 122.127 160.87L122.613 160.764L122.559 160.513C122.512 160.299 122.52 160.092 122.582 159.894L122.923 158.808C122.988 158.604 123.093 158.486 123.236 158.455L123.737 158.346C124.023 158.284 124.197 158.396 124.26 158.682L124.617 160.328L125.777 160.076C126.058 160.015 126.225 160.104 126.277 160.342L126.432 161.058C126.484 161.297 126.369 161.447 126.088 161.508L124.928 161.76L125.7 165.31C125.805 165.796 125.915 166.14 126.029 166.34C126.146 166.534 126.35 166.6 126.641 166.537C126.789 166.505 126.951 166.444 127.126 166.356C127.301 166.263 127.436 166.182 127.53 166.111C127.681 165.999 127.802 166.03 127.895 166.204L128.287 166.973C128.366 167.126 128.329 167.259 128.179 167.372C128.037 167.478 127.834 167.589 127.57 167.707C127.311 167.828 127.044 167.918 126.767 167.978C126.084 168.127 125.472 168.112 124.929 167.936C124.386 167.759 124.019 167.231 123.828 166.354L122.924 162.195L122.438 162.301ZM135.404 165.854C135.07 165.927 134.864 165.784 134.787 165.426L132.79 156.236C132.712 155.879 132.84 155.663 133.174 155.591L134.262 155.354C134.596 155.282 134.802 155.424 134.88 155.782L135.64 159.282L139.491 158.445L138.73 154.946C138.652 154.588 138.78 154.372 139.114 154.3L140.202 154.063C140.536 153.991 140.742 154.133 140.82 154.491L142.817 163.681C142.895 164.039 142.767 164.254 142.433 164.327L141.345 164.563C141.011 164.636 140.805 164.493 140.727 164.135L139.876 160.22L136.026 161.057L136.877 164.972C136.954 165.33 136.826 165.545 136.492 165.618L135.404 165.854ZM143.835 160.087C143.57 158.87 143.676 157.848 144.15 157.021C144.63 156.192 145.49 155.643 146.73 155.373C147.971 155.104 148.979 155.247 149.754 155.803C150.535 156.358 151.057 157.244 151.321 158.46C151.586 159.677 151.478 160.7 150.999 161.529C150.524 162.356 149.666 162.905 148.426 163.174C147.185 163.444 146.175 163.301 145.395 162.746C144.619 162.19 144.099 161.304 143.835 160.087ZM145.953 159.627C146.15 160.533 146.429 161.147 146.788 161.469C147.152 161.785 147.596 161.886 148.121 161.772C148.646 161.658 149.006 161.382 149.2 160.945C149.399 160.502 149.4 159.827 149.203 158.921C149.006 158.014 148.726 157.403 148.362 157.087C148.002 156.766 147.56 156.662 147.035 156.776C146.51 156.89 146.149 157.168 145.95 157.611C145.755 158.048 145.756 158.72 145.953 159.627ZM153.425 161.414C153.154 161.297 153.051 161.132 153.115 160.919L153.335 160.174C153.412 159.907 153.606 159.835 153.918 159.957C154.229 160.08 154.578 160.144 154.964 160.15C155.355 160.155 155.703 160.124 156.008 160.058C156.223 160.011 156.419 159.946 156.595 159.863C156.772 159.779 156.911 159.662 157.013 159.509C157.115 159.357 157.14 159.162 157.088 158.924C157.057 158.78 156.993 158.667 156.894 158.583C156.796 158.5 156.682 158.445 156.551 158.418C156.421 158.392 156.285 158.376 156.144 158.372C155.958 158.367 155.687 158.351 155.331 158.323C154.98 158.295 154.638 158.247 154.303 158.18C154.027 158.125 153.745 158.026 153.459 157.883C153.177 157.735 152.953 157.551 152.785 157.333C152.623 157.113 152.502 156.825 152.425 156.467C152.32 155.985 152.366 155.532 152.564 155.11C152.767 154.686 153.075 154.357 153.489 154.122C153.903 153.887 154.441 153.698 155.104 153.553C155.553 153.456 156.003 153.425 156.456 153.462C156.909 153.499 157.238 153.554 157.444 153.63C157.77 153.749 157.884 153.926 157.785 154.163L157.487 154.894C157.395 155.114 157.183 155.175 156.852 155.077C156.601 155.002 156.357 154.95 156.121 154.921C155.89 154.892 155.641 154.906 155.373 154.964C155.192 155.003 155.022 155.06 154.863 155.135C154.705 155.209 154.577 155.312 154.481 155.443C154.389 155.573 154.362 155.723 154.399 155.895C154.438 156.077 154.522 156.208 154.65 156.29C154.781 156.367 154.921 156.414 155.07 156.431C155.224 156.448 155.37 156.464 155.508 156.479C155.794 156.507 156.081 156.532 156.371 156.554C156.659 156.571 156.956 156.604 157.262 156.652C157.526 156.695 157.792 156.779 158.059 156.906C158.326 157.033 158.542 157.221 158.706 157.47C158.87 157.719 158.99 158.018 159.066 158.366C159.166 158.829 159.121 159.289 158.931 159.745C158.74 160.201 158.436 160.562 158.019 160.827C157.602 161.093 157.093 161.291 156.492 161.422C155.819 161.568 155.236 161.645 154.743 161.652C154.25 161.659 153.81 161.58 153.425 161.414ZM159.311 154.288C159.03 154.349 158.863 154.261 158.811 154.022L158.656 153.306C158.604 153.068 158.719 152.918 159 152.857L159.487 152.751L159.433 152.5C159.386 152.286 159.394 152.079 159.455 151.881L159.796 150.795C159.862 150.591 159.966 150.473 160.11 150.442L160.611 150.333C160.897 150.271 161.071 150.383 161.133 150.669L161.491 152.315L162.65 152.063C162.932 152.002 163.099 152.091 163.151 152.33L163.306 153.045C163.358 153.284 163.243 153.434 162.962 153.495L161.802 153.747L162.574 157.297C162.679 157.784 162.789 158.127 162.902 158.327C163.02 158.522 163.224 158.587 163.515 158.524C163.663 158.492 163.824 158.432 164 158.343C164.175 158.251 164.309 158.169 164.404 158.098C164.554 157.986 164.676 158.017 164.769 158.191L165.161 158.961C165.239 159.114 165.203 159.246 165.053 159.359C164.911 159.465 164.708 159.576 164.443 159.694C164.185 159.815 163.917 159.905 163.641 159.966C162.958 160.114 162.346 160.1 161.803 159.923C161.259 159.746 160.892 159.219 160.702 158.341L159.798 154.182L159.311 154.288ZM167.025 158.983C166.738 159.045 166.564 158.933 166.502 158.647L165.056 151.991C164.993 151.704 165.105 151.53 165.392 151.468L166.537 151.219C166.823 151.157 166.997 151.269 167.06 151.555L168.506 158.211C168.568 158.498 168.456 158.672 168.17 158.734L167.025 158.983ZM165.152 150.366C164.866 150.428 164.692 150.316 164.629 150.029L164.43 149.113C164.368 148.827 164.48 148.653 164.766 148.591L165.912 148.342C166.198 148.28 166.372 148.392 166.434 148.678L166.633 149.594C166.696 149.88 166.584 150.055 166.297 150.117L165.152 150.366ZM170.976 158.124C170.689 158.187 170.515 158.075 170.453 157.788L169.006 151.132C168.944 150.846 169.056 150.672 169.342 150.609L170.473 150.364C170.76 150.301 170.934 150.413 170.996 150.7L171.086 151.115L171.115 151.109C171.252 150.684 171.476 150.366 171.784 150.154C172.092 149.937 172.484 149.777 172.962 149.673C173.706 149.511 174.372 149.611 174.96 149.973C175.549 150.335 175.978 151.136 176.247 152.377L177.109 156.342C177.171 156.628 177.059 156.802 176.773 156.865L175.628 157.113C175.341 157.176 175.167 157.064 175.105 156.777L174.355 153.328C174.129 152.287 173.915 151.647 173.713 151.406C173.511 151.165 173.173 151.096 172.701 151.199C172.2 151.308 171.865 151.585 171.698 152.031C171.529 152.473 171.578 153.307 171.844 154.533L172.457 157.353C172.519 157.639 172.407 157.813 172.121 157.875L170.976 158.124ZM177.917 152.681C177.689 151.631 177.718 150.671 178.003 149.799C178.292 148.922 178.997 148.361 180.119 148.118C180.548 148.024 180.929 148.007 181.261 148.064C181.594 148.122 181.928 148.329 182.266 148.685L182.294 148.679L182.233 148.258C182.19 147.967 182.287 147.796 182.526 147.744L183.657 147.499C183.943 147.437 184.117 147.549 184.18 147.835L185.702 154.842C185.956 156.011 185.817 156.886 185.283 157.466C184.75 158.047 183.887 158.467 182.694 158.726C182.188 158.836 181.715 158.911 181.274 158.952C180.833 158.993 180.37 158.956 179.886 158.841C179.633 158.781 179.55 158.582 179.636 158.244L179.782 157.672C179.841 157.44 180.005 157.354 180.273 157.416C180.488 157.464 180.747 157.493 181.049 157.502C181.355 157.51 181.73 157.466 182.174 157.37C182.785 157.237 183.228 157.021 183.502 156.721C183.778 156.427 183.833 155.897 183.667 155.134L183.641 155.012C183.599 154.822 183.567 154.629 183.545 154.434L183.516 154.44C183.357 154.904 183.139 155.231 182.86 155.422C182.582 155.612 182.228 155.754 181.798 155.847C180.677 156.091 179.803 155.876 179.177 155.203C178.555 154.524 178.135 153.683 177.917 152.681ZM180.036 152.221C180.191 152.936 180.416 153.499 180.71 153.91C181.008 154.315 181.479 154.448 182.123 154.308C182.481 154.23 182.743 153.963 182.909 153.507C183.078 153.046 183.093 152.493 182.953 151.849L182.829 151.276C182.689 150.632 182.446 150.138 182.102 149.793C181.761 149.442 181.411 149.306 181.053 149.384C180.409 149.524 180.036 149.842 179.934 150.339C179.836 150.83 179.87 151.457 180.036 152.221Z" fill="white"/>
<defs>
<filter id="filter0_d_33_1032" x="13.1718" y="92.0724" width="257.177" height="141.525" filterUnits="userSpaceOnUse" color-interpolation-filters="sRGB">
<feFlood flood-opacity="0" result="BackgroundImageFix"/>
<feColorMatrix in="SourceAlpha" type="matrix" values="0 0 0 0 0 0 0 0 0 0 0 0 0 0 0 0 0 0 127 0" result="hardAlpha"/>
<feOffset dx="21" dy="4"/>
<feGaussianBlur stdDeviation="2"/>
<feComposite in2="hardAlpha" operator="out"/>
<feColorMatrix type="matrix" values="0 0 0 0 0 0 0 0 0 0 0 0 0 0 0 0 0 0 0.25 0"/>
<feBlend mode="normal" in2="BackgroundImageFix" result="effect1_dropShadow_33_1032"/>
<feBlend mode="normal" in="SourceGraphic" in2="effect1_dropShadow_33_1032" result="shape"/>
</filter>
<filter id="filter1_d_33_1032" x="170.551" y="0" width="134.515" height="298.777" filterUnits="userSpaceOnUse" color-interpolation-filters="sRGB">
<feFlood flood-opacity="0" result="BackgroundImageFix"/>
<feColorMatrix in="SourceAlpha" type="matrix" values="0 0 0 0 0 0 0 0 0 0 0 0 0 0 0 0 0 0 127 0" result="hardAlpha"/>
<feOffset dx="21" dy="4"/>
<feGaussianBlur stdDeviation="2"/>
<feComposite in2="hardAlpha" operator="out"/>
<feColorMatrix type="matrix" values="0 0 0 0 0 0 0 0 0 0 0 0 0 0 0 0 0 0 0.25 0"/>
<feBlend mode="normal" in2="BackgroundImageFix" result="effect1_dropShadow_33_1032"/>
<feBlend mode="normal" in="SourceGraphic" in2="effect1_dropShadow_33_1032" result="shape"/>
</filter>
<filter id="filter2_d_33_1032" x="7.37161" y="29.6865" width="114.76" height="296.768" filterUnits="userSpaceOnUse" color-interpolation-filters="sRGB">
<feFlood flood-opacity="0" result="BackgroundImageFix"/>
<feColorMatrix in="SourceAlpha" type="matrix" values="0 0 0 0 0 0 0 0 0 0 0 0 0 0 0 0 0 0 127 0" result="hardAlpha"/>
<feOffset dx="21" dy="4"/>
<feGaussianBlur stdDeviation="2"/>
<feComposite in2="hardAlpha" operator="out"/>
<feColorMatrix type="matrix" values="0 0 0 0 0 0 0 0 0 0 0 0 0 0 0 0 0 0 0.25 0"/>
<feBlend mode="normal" in2="BackgroundImageFix" result="effect1_dropShadow_33_1032"/>
<feBlend mode="normal" in="SourceGraphic" in2="effect1_dropShadow_33_1032" result="shape"/>
</filter>
</defs>
</svg>
